<svg width="119" height="28" fill="none" xmlns="http://www.w3.org/2000/svg"><path d="M30.01 13.799c-.061-3.943 3.092-7.278 7.624-7.216 1.16 0 2.153.142 2.99.447.854.284 1.483.55 1.869.793v2.357c-.367-.306-.957-.63-1.79-.975-.832-.367-1.85-.549-3.07-.549-3.352 0-5.324 2.255-5.324 5.143 0 2.866 2.052 5.143 4.961 5.143a6.32 6.32 0 003.739-1.24v-2.99h-4.128v-2.073h6.343v8.07h-2.215v-.713c-.815.51-2.113 1.015-3.739 1.015-4.273.004-7.321-3.27-7.26-7.212zm14.96 1.66c0-3.07 2.278-5.568 5.489-5.568 1.524 0 2.804.589 3.535 1.32v-1.015h2.175v10.507h-2.215l.022-1.076c-.691.713-1.808 1.382-3.517 1.382-3.212 0-5.488-2.48-5.488-5.55zm9.148-.018c0-2.277-1.546-3.597-3.495-3.597-1.972 0-3.456 1.607-3.456 3.597 0 1.993 1.484 3.618 3.456 3.618 1.95 0 3.495-1.323 3.495-3.618zm20.792-1.195v6.463h-2.196v-6.24c0-1.688-.611-2.645-2.052-2.645-1.32 0-2.644.997-2.644 2.968v5.914h-2.197v-6.241c0-1.688-.61-2.645-2.05-2.645-1.22 0-2.46.855-2.623 2.561v6.321H58.95V10.195h2.197v1.262c.124-.284.833-1.586 2.946-1.586 1.484 0 2.644.59 3.313 1.728.488-.913 1.586-1.728 3.58-1.728 2.36.004 3.923 1.488 3.923 4.375zm1.623 1.218c0-3.07 2.277-5.568 5.489-5.568 1.523 0 2.804.59 3.535 1.32v-4.31l2.196-.367v14.166h-2.236l.022-1.076c-.692.712-1.808 1.382-3.517 1.382-3.212.003-5.489-2.477-5.489-5.547zm9.147-.018c0-2.277-1.545-3.597-3.495-3.597-1.971 0-3.517 1.608-3.517 3.597 0 1.993 1.546 3.619 3.517 3.619 1.95 0 3.495-1.324 3.495-3.619z" fill="#F4F9FF"/><path d="M118.999 14.246v6.463h-2.197v-6.24c0-1.688-.611-2.645-2.051-2.645-1.321 0-2.645.997-2.645 2.968v5.914h-2.196v-6.241c0-1.688-.611-2.645-2.052-2.645-1.218 0-2.458.855-2.622 2.561v6.321h-2.193V10.195h2.197v1.262c.123-.284.833-1.586 2.946-1.586 1.484 0 2.644.59 3.313 1.728.487-.913 1.586-1.728 3.579-1.728 2.357.004 3.921 1.488 3.921 4.375z" fill="#fff"/><path d="M11.039 17.258h-.004v6.856h.004v-6.856z" fill="#01D370"/><path d="M11.039 17.258h-.004v6.856h.004v-6.856z" fill="#01D370"/><path d="M10.477 13.748l-6.86 3.245a.598.598 0 00-.334.538v6.3c0 .232.131.44.335.538l6.863 3.247c.174.084.364.124.553.124V13.621c-.19.004-.379.047-.557.127zM10.73.073L7.51 1.666v4.28L3.742 7.795V3.477L.367 5.154A.661.661 0 000 5.743v8.249c0 .483.513.803.946.589l9.503-4.663c.186-.09.386-.134.586-.134V0a.687.687 0 00-.306.073z" fill="#00FF86"/><path d="M18.455 16.993l-6.863-3.244a1.206 1.206 0 00-.557-.124v14.12c.19 0 .386-.04.56-.125l6.86-3.247a.599.599 0 00.334-.539v-6.299a.6.6 0 00-.334-.542zm3.251-11.839l-3.375-1.677v4.321L14.559 5.95V1.67L11.341.077a.699.699 0 00-.306-.073v9.783c.2 0 .4.048.586.135l9.503 4.663a.657.657 0 00.946-.59V5.748a.653.653 0 00-.364-.593z" fill="#01D370"/><circle cx="95.325" cy="15.876" r="5.431" fill="url(#paint0_radial_242_46)"/><path d="M95.916 11.25c.054-.157.607-1.434.645-1.56.038-.127.837-.136 1.452.054.699.215 1.075.72 1.021.86-.053.14-.627 1.478-.743 1.6-.117.12-.682.143-1.354-.04-.752-.205-1.075-.758-1.021-.915z" fill="url(#paint1_linear_242_46)"/><path d="M98.9 10.548c-.045.109-.616.026-1.164-.203-.548-.23-1.058-.486-1.012-.594.045-.109.82-.103 1.367.127.548.23.855.562.81.67z" fill="url(#paint2_linear_242_46)"/><path transform="rotate(19.582 96.535 10.012)" fill="url(#paint3_radial_242_46)" d="M96.535 10.012h.206v1.524h-.206z"/><path transform="rotate(19.582 96.965 10.34)" fill="url(#paint4_radial_242_46)" d="M96.965 10.34h.331v1.524h-.331z"/><path transform="rotate(19.582 97.826 10.656)" fill="url(#paint5_radial_242_46)" d="M97.826 10.656h.255v1.524h-.255z"/><path transform="rotate(19.582 98.559 10.875)" fill="url(#paint6_radial_242_46)" d="M98.559 10.875h.182v1.145h-.182z"/><path fill-rule="evenodd" clip-rule="evenodd" d="M97.978 10.084a.355.355 0 00.272-.25c.066-.198-.029-.38-.172-.428-.143-.047-.328.042-.394.24a.35.35 0 00.083.377l-.069-.014-.09.03a.503.503 0 01-.05-.434c.085-.253.336-.398.561-.324.226.075.34.341.256.595a.497.497 0 01-.336.33l-.061-.122z" fill="url(#paint7_linear_242_46)"/><path d="M100.324 15.057c-.147-1.17-.784-2.226-1.085-2.608a2.705 2.705 0 00-.656.086c-.325.079-.666-.069-.796-.152.377.54 1.191 1.822 1.436 2.624.302.99.164 1.96.018 2.986l-.006.038c-.118.832-.956 1.894-1.36 2.322.346-.256 1.177-.935 1.73-1.608.69-.84.904-2.226.719-3.688z" fill="url(#paint8_radial_242_46)"/><mask id="a" maskUnits="userSpaceOnUse" x="89.384" y="12.069" width="5.453" height="6.057" fill="#000"><path fill="#fff" d="M89.384 12.069h5.453v6.057h-5.453z"/><path fill-rule="evenodd" clip-rule="evenodd" d="M92.433 13.834l.419-.055a.077.077 0 01.036.003v.002a.078.078 0 01.03.02l.288.31-.175.488.339.36.176-.494.303.325a.08.08 0 01.015.082l-.337.941c-.02.055-.09.072-.128.03l-.853-.907a.156.156 0 00-.06-.038l.001-.002a.15.15 0 00-.07-.007l-1.234.157c-.057.008-.1-.049-.08-.104l.338-.942a.08.08 0 01.064-.053l.44-.058-.177.493.49-.063.175-.488zm-.17 1.498l-.886.1a.073.073 0 00-.059.049l-.258.719a.073.073 0 00.015.075l.621.64a.146.146 0 00.056.037l.001-.004c.02.008.043.01.065.008l.887-.1a.073.073 0 00.059-.049l.258-.719a.073.073 0 00-.015-.075l-.621-.64a.137.137 0 00-.056-.037l-.001.003a.16.16 0 00-.066-.007z"/></mask><path d="M92.852 13.779l.034.26h.001l-.035-.26zm-.42.055l-.034-.261a.263.263 0 00-.213.172l.248.089zm.456-.052l.252.077a.263.263 0 00-.163-.325l-.089.248zm0 .002l-.252-.077a.264.264 0 00.161.325l.09-.248zm.03.02l-.194.18h.001l.193-.18zm.288.31l.248.088a.263.263 0 00-.055-.269l-.193.18zm-.175.488l-.248-.09a.263.263 0 00.056.27l.192-.18zm.339.36l-.192.18a.264.264 0 00.44-.092l-.248-.089zm.176-.494l.193-.18a.264.264 0 00-.44.091l.247.09zm.303.325l.193-.18-.193.18zm.015.082l-.246-.093-.002.004.248.088zm-.465.971l.192-.18-.192.18zm-.853-.907l.191-.18-.003-.003-.188.183zm-.06-.038l-.247-.089a.263.263 0 00.159.337l.089-.248zm.001-.002l.248.089a.263.263 0 00-.16-.337l-.088.248zm-.07-.007l-.032-.262.033.261zm-1.234.157l-.034-.261.034.261zm-.08-.104l-.248-.09.248.09zm.338-.942l.248.09-.248-.09zm.064-.053l-.034-.26h-.001l.035.26zm.44-.058l.248.089a.264.264 0 00-.283-.35l.035.261zm-.177.493l-.248-.09a.264.264 0 00.281.351l-.033-.261zm.49-.063l.033.262a.264.264 0 00.215-.173l-.249-.089zm-.881 1.11l-.03-.261h-.002l.032.261zm.886-.1l-.024-.262h-.005l.03.262zm-.945.149l-.248-.09.248.09zm-.258.719l.248.089-.248-.09zm.015.075l-.19.181v.002l.19-.183zm.621.64l.19-.182-.19.183zm.056.037l-.09.247a.263.263 0 00.332-.145l-.242-.102zm.001-.004l.087-.248a.263.263 0 00-.33.146l.243.102zm.065.008l-.03-.262.03.262zm.887-.1l.03.261h.002l-.032-.261zm.302-.843l.19-.182v-.001l-.19.183zm-.621-.64l-.192.18.003.003.189-.183zm-.056-.037l.084-.25a.263.263 0 00-.332.162l.248.088zm-.001.003l-.082.25a.263.263 0 00.33-.16l-.248-.09zm.488-1.822l-.419.056.069.522.419-.055-.069-.522zm.16.017a.343.343 0 00-.16-.016l.07.522a.187.187 0 01-.088-.01l.178-.496zm.162.327l.001-.002-.504-.154v.002l.504.154zm-.028-.236a.343.343 0 00-.133-.088l-.18.495a.185.185 0 01-.073-.048l.386-.358zm.288.308l-.289-.308-.385.36.289.308.385-.36zm-.12.758l.175-.489-.496-.178-.175.489.496.178zm.282.09l-.338-.36-.384.362.339.359.383-.361zm-.262-.402l-.177.493.496.178.177-.493-.496-.178zm.742.234l-.302-.324-.385.359.302.324.385-.36zm.07.354a.343.343 0 00-.07-.354l-.385.359a.184.184 0 01-.038-.19l.493.185zm-.336.938l.337-.942-.496-.177-.337.941.496.178zm-.568.121c.186.199.488.102.568-.121l-.496-.178c.04-.113.204-.176.312-.061l-.384.36zm-.853-.906l.853.907.384-.362-.854-.906-.383.36zm.044.029a.106.106 0 01-.041-.026l.377-.367a.42.42 0 00-.158-.103l-.178.496zm-.159-.339v.002l.496.178v-.002l-.496-.178zm.212.343a.113.113 0 01-.052-.006l.177-.496a.413.413 0 00-.191-.02l.066.522zm-1.235.158l1.235-.158-.067-.523-1.235.158.067.523zm-.36-.455c-.081.223.091.49.361.454l-.069-.522c.158-.02.243.133.203.246l-.496-.178zm.337-.942l-.338.942.496.178.338-.942-.496-.178zm.277-.225a.344.344 0 00-.277.225l.496.178a.183.183 0 01-.148.12l-.071-.523zm.44-.058l-.44.058.07.523.44-.059-.07-.522zm.106.843l.177-.493-.496-.178-.177.493.496.178zm.208-.413l-.49.063.067.522.49-.062-.067-.523zm-.04-.316l-.174.488.495.178.176-.488-.496-.178zm-.778 1.95l.887-.1-.06-.524-.886.1.06.523zm.16-.125a.19.19 0 01-.157.124l-.064-.523a.336.336 0 00-.275.22l.496.179zm-.258.719l.258-.72-.496-.177-.258.719.496.178zm-.043-.196a.191.191 0 01.043.196l-.496-.178a.336.336 0 00.072.345l.382-.363zm.62.64l-.62-.642-.38.367.622.64.378-.366zm-.044-.03a.118.118 0 01.045.03l-.38.365c.045.047.1.081.157.102l.178-.497zm-.33.143l-.002.003.485.205.002-.003-.486-.205zm.276-.152a.123.123 0 01.053.006l-.174.497c.055.02.118.028.183.02l-.062-.523zm.888-.1l-.886.1.059.524.887-.1-.06-.524zm-.16.124a.19.19 0 01.158-.124l.064.523a.336.336 0 00.275-.22l-.496-.179zm.259-.719l-.258.72.496.177.258-.719-.496-.178zm.042.196a.19.19 0 01-.042-.196l.496.178a.337.337 0 00-.072-.346l-.382.364zm-.62-.64l.622.642.378-.367-.621-.64-.378.366zm.05.031a.126.126 0 01-.052-.033l.383-.361a.4.4 0 00-.163-.105l-.168.5zm.33-.158l.002-.003-.496-.178-.001.004.496.177zm-.288.167a.102.102 0 01-.041-.005l.164-.5a.426.426 0 00-.172-.02l.049.525z" fill="url(#paint9_radial_242_46)" mask="url(#a)"/><defs><radialGradient id="paint0_radial_242_46" cx="0" cy="0" r="1" gradientUnits="userSpaceOnUse" gradientTransform="rotate(55.359 30.948 94.663) scale(7.18878)"><stop stop-color="#00FF86"/><stop offset="1" stop-color="#008445"/></radialGradient><radialGradient id="paint3_radial_242_46" cx="0" cy="0" r="1" gradientUnits="userSpaceOnUse" gradientTransform="matrix(0 .762 -.10298 0 96.638 10.774)"><stop stop-color="#CE871E"/><stop offset="1" stop-color="#FA9E15" stop-opacity="0"/></radialGradient><radialGradient id="paint4_radial_242_46" cx="0" cy="0" r="1" gradientUnits="userSpaceOnUse" gradientTransform="matrix(0 .762 -.16546 0 97.13 11.102)"><stop stop-color="#CE871E"/><stop offset="1" stop-color="#FA9E15" stop-opacity="0"/></radialGradient><radialGradient id="paint5_radial_242_46" cx="0" cy="0" r="1" gradientUnits="userSpaceOnUse" gradientTransform="matrix(0 .762 -.12729 0 97.954 11.418)"><stop stop-color="#CE871E"/><stop offset="1" stop-color="#FA9E15" stop-opacity="0"/></radialGradient><radialGradient id="paint6_radial_242_46" cx="0" cy="0" r="1" gradientUnits="userSpaceOnUse" gradientTransform="matrix(0 .57268 -.09102 0 98.65 11.448)"><stop stop-color="#CE871E"/><stop offset="1" stop-color="#FA9E15" stop-opacity="0"/></radialGradient><radialGradient id="paint8_radial_242_46" cx="0" cy="0" r="1" gradientUnits="userSpaceOnUse" gradientTransform="rotate(92.614 41.65 55.497) scale(3.9788 1.38557)"><stop stop-color="#fff"/><stop offset="1" stop-color="#fff" stop-opacity="0"/></radialGradient><radialGradient id="paint9_radial_242_46" cx="0" cy="0" r="1" gradientUnits="userSpaceOnUse" gradientTransform="matrix(.58955 8.01478 -6.1328 .45112 92.369 13.025)"><stop stop-color="#fff"/><stop offset="1" stop-color="#fff" stop-opacity="0"/></radialGradient><linearGradient id="paint1_linear_242_46" x1="97.475" y1="9.597" x2="97.475" y2="12.271" gradientUnits="userSpaceOnUse"><stop stop-color="#ECB86B"/><stop offset="1" stop-color="#E39826"/></linearGradient><linearGradient id="paint2_linear_242_46" x1="97.951" y1="9.819" x2="97.731" y2="10.343" gradientUnits="userSpaceOnUse"><stop stop-color="#A66F1E"/><stop offset="1" stop-color="#CC9441"/></linearGradient><linearGradient id="paint7_linear_242_46" x1="97.559" y1="9.606" x2="98.375" y2="9.876" gradientUnits="userSpaceOnUse"><stop stop-color="#D7D5D5"/><stop offset="1" stop-color="#D7D5D5"/></linearGradient></defs></svg>