<svg width="68" height="35" xmlns="http://www.w3.org/2000/svg"><g fill="none"><path d="M3.846 0h60.308c1.337 0 1.822.14 2.311.4.49.262.873.646 1.134 1.135.262.489.401.974.401 2.31v27.31c0 1.336-.14 1.821-.4 2.31a2.726 2.726 0 01-1.135 1.134c-.489.262-.974.401-2.31.401H3.844c-1.336 0-1.821-.14-2.31-.4A2.726 2.726 0 01.4 33.464c-.261-.488-.4-.973-.4-2.309V3.844c0-1.336.14-1.821.4-2.31A2.726 2.726 0 011.536.4c.488-.261.973-.4 2.309-.4z" fill="#EFEFEF"/><path d="M47.235 27.882a.096.096 0 01.062.017.06.06 0 01.022.047.055.055 0 01-.017.043.084.084 0 01-.05.021l.068.078h-.053l-.063-.077h-.02v.077h-.042v-.206h.093zm-.014.277a.178.178 0 00.123-.05.171.171 0 00.038-.19.177.177 0 00-.037-.054.178.178 0 00-.286.055.166.166 0 00-.014.067c0 .023.004.046.014.067a.162.162 0 00.093.092.185.185 0 00.07.013zm0-.396a.226.226 0 01.21.136.211.211 0 01.017.087.21.21 0 01-.017.086.23.23 0 01-.048.071.226.226 0 01-.162.065.23.23 0 01-.162-.065.23.23 0 01-.049-.07.211.211 0 01-.017-.087.219.219 0 01.138-.205.23.23 0 01.09-.018zm-21.066-.794a.667.667 0 01.184-.507.68.68 0 01.5-.21.68.68 0 01.498.212.667.667 0 01.182.505.667.667 0 01-.182.505.68.68 0 01-.498.21.68.68 0 01-.5-.209.667.667 0 01-.184-.506zm1.828 0V25.85h-.494v.272a.86.86 0 00-.713-.328c-.31 0-.605.126-.819.348-.213.222-.325.52-.31.827-.015.306.097.605.31.827.214.222.51.347.82.347a.86.86 0 00.712-.327v.271h.494v-1.118zm16.591 0a.667.667 0 01.184-.507.68.68 0 01.5-.21.68.68 0 01.498.212.667.667 0 01.182.505.667.667 0 01-.182.505.68.68 0 01-.497.21.68.68 0 01-.5-.209.667.667 0 01-.185-.506zm1.828 0v-2.017h-.493v1.17a.86.86 0 00-.713-.328c-.31 0-.605.126-.819.348-.213.222-.326.52-.311.827-.015.306.098.605.311.827.214.222.51.347.819.347a.86.86 0 00.713-.327v.271h.493v-1.118zm-12.325-.734a.559.559 0 01.57.543h-1.171a.579.579 0 01.6-.543zm.01-.435a1.108 1.108 0 00-.826.34 1.087 1.087 0 00-.3.835c-.021.312.093.62.314.844.22.224.528.344.844.33.336.012.666-.1.925-.313l-.247-.36c-.187.148-.418.23-.658.235a.625.625 0 01-.674-.548h1.676c0-.061.01-.122.01-.187.029-.3-.071-.598-.275-.821a1.088 1.088 0 00-.797-.354h.007zm5.92 1.176a.667.667 0 01.185-.507.68.68 0 01.5-.21.68.68 0 01.498.212.667.667 0 01.182.505.667.667 0 01-.182.505.68.68 0 01-.498.211.68.68 0 01-.5-.21.667.667 0 01-.184-.506zm1.829 0v-1.118h-.494v.271a.86.86 0 00-.713-.328c-.31 0-.605.126-.819.348a1.11 1.11 0 00-.31.827c-.016.306.097.605.31.827.214.222.51.348.82.348a.86.86 0 00.712-.328v.271h.494v-1.118zm-4.602 0c-.013.319.11.628.34.852.23.224.544.34.866.323.294.014.584-.08.811-.267l-.235-.393a.993.993 0 01-.591.201.678.678 0 01-.498-.21.665.665 0 01-.182-.506.665.665 0 01.182-.506.678.678 0 01.498-.21.993.993 0 01.59.201l.236-.393a1.19 1.19 0 00-.811-.267 1.147 1.147 0 00-.866.323c-.23.224-.353.533-.34.852zm6.331-1.175a.668.668 0 00-.596.328v-.271h-.487v2.236h.493V26.84c0-.366.16-.575.483-.575a.802.802 0 01.307.056l.152-.458a1.075 1.075 0 00-.35-.062h-.002zm-13.16.235a1.701 1.701 0 00-.92-.235c-.572 0-.94.272-.94.717 0 .366.274.59.78.66l.232.033c.269.038.396.107.396.234 0 .174-.18.272-.515.272a1.21 1.21 0 01-.75-.235l-.233.379c.286.198.63.3.978.29.653 0 1.03-.304 1.03-.733 0-.393-.297-.598-.788-.668l-.232-.033c-.212-.028-.382-.07-.382-.22s.16-.262.43-.262c.247.004.489.07.704.192l.21-.39zm6.335-.235a.666.666 0 00-.595.328v-.271h-.486v2.236h.494V26.84c0-.366.16-.575.482-.575a.802.802 0 01.307.056l.152-.458a1.075 1.075 0 00-.35-.062h-.004zm-4.19.057h-.804v-.679h-.493v.679h-.458v.445h.458v1.02c0 .52.203.829.784.829.219 0 .432-.06.617-.174l-.142-.417a.915.915 0 01-.434.123c-.247 0-.325-.15-.325-.374v-1.011h.803l-.007-.441zm-7.341 2.236V26.69a.83.83 0 00-.242-.644.846.846 0 00-.647-.246.877.877 0 00-.793.399.83.83 0 00-.74-.399.748.748 0 00-.661.333v-.277h-.494v2.237h.494v-1.24a.52.52 0 01.134-.428.53.53 0 01.418-.168c.326 0 .494.21.494.59v1.246h.493v-1.24a.525.525 0 01.137-.426.535.535 0 01.416-.17c.335 0 .493.21.493.59v1.246l.498.001z" fill="#231F20"/><path d="M47.485 20.646v-.33h-.09l-.1.225-.1-.225h-.086v.326h.062v-.244l.092.213h.063l.093-.213v.244l.066.004zm-.545 0v-.271h.11v-.059h-.281v.055h.11v.271l.061.004z" fill="#F79410"/><path fill="#FF5F00" d="M37.71 22.052h-7.446V8.802h7.442z"/><path d="M30.745 15.426a8.385 8.385 0 013.248-6.624A8.517 8.517 0 0028.735 7c-4.696 0-8.504 3.772-8.504 8.426 0 2.235.896 4.378 2.49 5.959a8.544 8.544 0 006.014 2.468 8.517 8.517 0 005.256-1.801 8.385 8.385 0 01-3.248-6.625" fill="#EB001B"/><path d="M47.746 15.426a8.387 8.387 0 01-2.49 5.959 8.544 8.544 0 01-6.015 2.468 8.52 8.52 0 01-5.254-1.801 8.383 8.383 0 003.247-6.625 8.383 8.383 0 00-3.247-6.625A8.52 8.52 0 0139.243 7c4.696 0 8.504 3.772 8.504 8.426" fill="#F79E1B"/></g></svg>