<?xml version="1.0" encoding="UTF-8"?>
<svg width="68px" height="35px" viewBox="0 0 68 35" version="1.1" xmlns="http://www.w3.org/2000/svg" xmlns:xlink="http://www.w3.org/1999/xlink">
    <!-- Generator: sketchtool 64 (101010) - https://sketch.com -->
    <title>457E6023-EC43-480D-B8C1-3017315E21DF@1.00x</title>
    <desc>Created with sketchtool.</desc>
    <g id="Symbols" stroke="none" stroke-width="1" fill="none" fill-rule="evenodd">
        <g id="Icons/Methods/Visa">
            <g id="Visa">
                <g>
                    <path d="M3.8458278,-8.35501651e-16 L64.1541722,1.55376046e-16 C65.4914503,-9.02779573e-17 65.9763797,0.139238417 66.4652686,0.400699056 C66.9541574,0.662159695 67.3378403,1.04584256 67.5993009,1.53473144 C67.8607616,2.02362033 68,2.50854969 68,3.8458278 L68,31.1541722 C68,32.4914503 67.8607616,32.9763797 67.5993009,33.4652686 C67.3378403,33.9541574 66.9541574,34.3378403 66.4652686,34.5993009 C65.9763797,34.8607616 65.4914503,35 64.1541722,35 L3.8458278,35 C2.50854969,35 2.02362033,34.8607616 1.53473144,34.5993009 C1.04584256,34.3378403 0.662159695,33.9541574 0.400699056,33.4652686 C0.139238417,32.9763797 6.01853049e-17,32.4914503 -1.03584031e-16,31.1541722 L1.03584031e-16,3.8458278 C-6.01853049e-17,2.50854969 0.139238417,2.02362033 0.400699056,1.53473144 C0.662159695,1.04584256 1.04584256,0.662159695 1.53473144,0.400699056 C2.02362033,0.139238417 2.50854969,4.8545052e-16 3.8458278,-8.35501651e-16 Z" id="Rectangle-Copy-8" fill="#00579F"></path>
                    <g id="g4158" transform="translate(14.000000, 11.000000)" fill="#FFFFFF" fill-rule="nonzero">
                        <polygon id="polygon9" points="16.5617778 12.6344444 13.4657662 12.6344444 15.4015584 0.770222222 18.49757 0.770222222"></polygon>
                        <path d="M27.7856046,1.05955556 C26.8996462,0.721295133 25.9577513,0.54984106 25.0083001,0.553926115 C21.9499683,0.553926115 19.797518,2.16866667 19.7849582,4.47866667 C19.7598384,6.18977778 21.326684,7.12311111 22.4978932,7.69711111 C23.6957922,8.27733333 24.1024185,8.65688889 24.1024185,9.17488889 C24.0898586,9.96977778 23.1353074,10.3353333 22.2435556,10.3353333 C21.2378806,10.3628888 20.2406909,10.1460575 19.3390823,9.70377778 L18.930886,9.514 L18.49757,12.1771111 C19.5987501,12.6003159 20.7704359,12.8145578 21.9515382,12.8087849 C25.1998384,12.8087849 27.3146089,11.2188889 27.3397287,8.76422222 C27.3522886,7.414 26.5249062,6.37955556 24.7414026,5.53333333 C23.6581126,4.99044444 22.9955786,4.62488889 22.9955786,4.06955556 C23.0081385,3.564 23.5560635,3.04755556 24.7790823,3.04755556 C25.5725932,3.02462082 26.3610546,3.17990646 27.0853911,3.50177778 L27.3648485,3.62777778 L27.7856046,1.06577778 L27.7856046,1.05955556 Z" id="path11"></path>
                        <path d="M31.9005368,8.43133333 C32.1548745,7.75 33.1361154,5.11177778 33.1361154,5.11177778 C33.1235556,5.13666667 33.3904531,4.418 33.5427417,3.97622222 L33.7593997,4.99822222 C33.7593997,4.99822222 34.3465743,7.83866667 34.4737431,8.43133333 L31.9005368,8.43133333 Z M35.7218817,0.770222222 L33.3276537,0.770222222 C32.6227023,0.685805448 31.9519957,1.09381237 31.7089986,1.75488889 L27.1105108,12.6344444 L30.358811,12.6344444 L31.008785,10.8548889 L34.9839885,10.8548889 C35.0734776,11.2717778 35.3529351,12.6344444 35.3529351,12.6344444 L38.2228687,12.6344444 L35.7250216,0.770222222 L35.7218817,0.770222222 Z" id="path13"></path>
                        <path d="M10.8737201,0.770222222 L7.84207792,8.85911111 L7.51081097,7.218 C6.7572968,5.0894189 5.23108982,3.31495103 3.22946032,2.24022222 L6.00676479,12.6157778 L9.2801847,12.6157778 L14.14714,0.764 L10.8737201,0.770222222 Z" id="path15"></path>
                        <path d="M5.03180375,0.770222222 L0.0533795094,0.770222222 L0.00313997114,1.00977778 C3.39974251,1.70294623 6.22118385,4.03370476 7.52023088,7.21955556 L6.43694084,1.76733333 C6.29954312,1.12615573 5.69201554,0.694077459 5.03494372,0.770222222 L5.03180375,0.770222222 Z" id="path17"></path>
                    </g>
                </g>
            </g>
        </g>
    </g>
</svg>