<?xml version="1.0" encoding="UTF-8"?>
<svg width="24px" height="24px" viewBox="0 0 24 24" version="1.1" xmlns="http://www.w3.org/2000/svg" xmlns:xlink="http://www.w3.org/1999/xlink">
    <!-- Generator: Sketch 58 (84663) - https://sketch.com -->
    <title>18+</title>
    <desc>Created with Sketch.</desc>
    <g id="Symbols" stroke="none" stroke-width="1" fill="none" fill-rule="evenodd">
        <g id="Footer" transform="translate(-1571.000000, -162.000000)" fill="#919597" fill-rule="nonzero">
            <g id="18+-Warning">
                <g transform="translate(1370.000000, 161.000000)">
                    <g id="18+" transform="translate(201.000000, 0.000000)">
                        <g id="Group_81" transform="translate(5.887000, 8.644000)">
                            <polygon id="Path_12224" points="1.457 7.919 1.457 1.619 0 1.619 0 0 3.468 0 3.468 7.919"></polygon>
                        </g>
                        <g id="Group_82" transform="translate(10.846000, 8.565000)">
                            <path d="M6.07,2.124 C6.06923694,2.81241392 5.68628884,3.44346925 5.076,3.762 C5.91460642,4.07299801 6.47564419,4.86766906 6.488,5.762 C6.488,7.185 5.223,8.089 3.246,8.089 C1.269,8.089 0.004,7.197 0.004,5.796 C0.0291691797,4.87116296 0.627749438,4.05988718 1.504,3.763 C0.85687086,3.4400367 0.435772641,2.79154544 0.404,2.069 C0.404,0.804 1.511,0.00199637181 3.228,0.00199637181 C4.97,-4.6425537e-15 6.07,0.825 6.07,2.124 Z M1.902,5.592 C1.902,6.259 2.376,6.631 3.246,6.631 C4.116,6.631 4.601,6.27 4.601,5.592 C4.601,4.937 4.115,4.564 3.246,4.564 C2.377,4.564 1.898,4.936 1.898,5.592 L1.902,5.592 Z M2.102,2.237 C2.102,2.802 2.509,3.118 3.243,3.118 C3.977,3.118 4.384,2.802 4.384,2.237 C4.384,1.65 3.977,1.322 3.243,1.322 C2.509,1.322 2.101,1.65 2.101,2.237 L2.102,2.237 Z" id="Path_12225"></path>
                        </g>
                        <g id="Group_83" transform="translate(-0.000000, 0.000000)">
                            <path d="M20.676,9.538 C22.0975063,13.746632 20.4337027,18.37999 16.659583,20.7229122 C12.8854634,23.0658343 7.99490188,22.5013371 4.85378237,19.3602176 C1.71266285,16.2190981 1.14816566,11.3285366 3.49108785,7.55441698 C5.83401003,3.78029732 10.467368,2.11649368 14.676,3.538 L14.676,1.412 C9.60086991,0.0228593755 4.2264068,2.22370796 1.5832709,6.77348705 C-1.059865,11.3232661 -0.309550575,17.0822258 3.41111181,20.8028882 C7.13177419,24.5235506 12.8907339,25.273865 17.4405129,22.6307291 C21.990292,19.9875932 24.1911406,14.6131301 22.802,9.538 L20.676,9.538 Z" id="Path_12226"></path>
                        </g>
                        <g id="Group_84" transform="translate(16.283000, 1.888000)">
                            <polygon id="Path_12227" points="3.813 2.226 3.813 0 2.213 0 2.213 2.226 2.84217094e-14 2.226 2.84217094e-14 3.826 2.213 3.826 2.213 6.052 3.813 6.052 3.813 3.826 6.039 3.826 6.039 2.226"></polygon>
                        </g>
                    </g>
                </g>
            </g>
        </g>
    </g>
</svg>